<?xml version="1.0" encoding="UTF-8"?>
<!DOCTYPE svg PUBLIC "-//W3C//DTD SVG 1.1//EN" "http://www.w3.org/Graphics/SVG/1.1/DTD/svg11.dtd">
<svg xmlns="http://www.w3.org/2000/svg" version="1.1" width="600px" height="600px" style="shape-rendering:geometricPrecision; text-rendering:geometricPrecision; image-rendering:optimizeQuality; fill-rule:evenodd; clip-rule:evenodd" xmlns:xlink="http://www.w3.org/1999/xlink">
<g><path style="opacity:0.927" fill="#43b8c8" d="M 109.5,91.5 C 109.205,93.7354 109.539,95.7354 110.5,97.5C 106.78,124.195 91.4467,137.028 64.5,136C 39.59,129.41 28.4234,113.244 31,87.5C 39.1332,65.3497 54.9665,55.183 78.5,57C 96.4555,61.7827 106.789,73.2827 109.5,91.5 Z"/></g>
<g><path style="opacity:1" fill="#e4e3e3" d="M 99.5,93.5 C 98.1779,93.33 97.0113,93.6634 96,94.5C 95.1325,96.6843 94.2992,98.851 93.5,101C 93.358,103.912 94.6913,105.412 97.5,105.5C 91.4846,120.974 80.1513,127.474 63.5,125C 43.5597,116.849 37.393,102.683 45,82.5C 46.0491,80.3825 47.5491,78.7158 49.5,77.5C 50.8582,77.8222 52.5248,77.8222 54.5,77.5C 54.2436,79.7925 54.5769,81.9592 55.5,84C 54.0203,85.2991 53.3536,86.9658 53.5,89C 54.3222,92.1406 54.9888,95.3073 55.5,98.5C 60.6731,101.066 65.6731,104.066 70.5,107.5C 68.9829,111.094 69.8163,114.094 73,116.5C 73.1816,119.226 73.6816,121.893 74.5,124.5C 79.8679,121.132 84.2012,116.799 87.5,111.5C 84.3575,109.759 81.3575,107.759 78.5,105.5C 75.1849,104.447 71.8515,104.447 68.5,105.5C 67.9556,103.42 67.1223,101.42 66,99.5C 65.3109,100.357 64.4776,101.023 63.5,101.5C 62.3691,99.9255 62.2025,98.2588 63,96.5C 65.394,95.049 67.5607,95.3824 69.5,97.5C 70.5804,95.0038 71.9138,92.6705 73.5,90.5C 74.7277,88.679 76.3944,87.679 78.5,87.5C 78.5,86.5 78.5,85.5 78.5,84.5C 79.5,84.5 80.5,84.5 81.5,84.5C 81.5792,83.0695 81.2458,81.7362 80.5,80.5C 78.5653,79.4366 76.8986,78.1033 75.5,76.5C 74.8133,78.2744 73.9799,79.9411 73,81.5C 71.414,80.624 69.914,79.624 68.5,78.5C 70.2766,76.1066 72.6099,74.4399 75.5,73.5C 75,73.1667 74.5,72.8333 74,72.5C 68.3504,72.1617 62.517,71.8284 56.5,71.5C 60.0974,68.6907 64.2641,67.3574 69,67.5C 85.8123,68.4854 95.979,77.152 99.5,93.5 Z"/></g>
<g><path style="opacity:1" fill="#46556e" d="M 56.5,71.5 C 62.517,71.8284 68.3504,72.1617 74,72.5C 74.5,72.8333 75,73.1667 75.5,73.5C 72.6099,74.4399 70.2766,76.1066 68.5,78.5C 69.914,79.624 71.414,80.624 73,81.5C 73.9799,79.9411 74.8133,78.2744 75.5,76.5C 76.8986,78.1033 78.5653,79.4366 80.5,80.5C 81.2458,81.7362 81.5792,83.0695 81.5,84.5C 80.5,84.5 79.5,84.5 78.5,84.5C 78.5,85.5 78.5,86.5 78.5,87.5C 76.3944,87.679 74.7277,88.679 73.5,90.5C 71.9138,92.6705 70.5804,95.0038 69.5,97.5C 67.5607,95.3824 65.394,95.049 63,96.5C 62.2025,98.2588 62.3691,99.9255 63.5,101.5C 64.4776,101.023 65.3109,100.357 66,99.5C 67.1223,101.42 67.9556,103.42 68.5,105.5C 71.8515,104.447 75.1849,104.447 78.5,105.5C 81.3575,107.759 84.3575,109.759 87.5,111.5C 84.2012,116.799 79.8679,121.132 74.5,124.5C 73.6816,121.893 73.1816,119.226 73,116.5C 69.8163,114.094 68.9829,111.094 70.5,107.5C 65.6731,104.066 60.6731,101.066 55.5,98.5C 54.9888,95.3073 54.3222,92.1406 53.5,89C 53.3536,86.9658 54.0203,85.2991 55.5,84C 54.5769,81.9592 54.2436,79.7925 54.5,77.5C 52.5248,77.8222 50.8582,77.8222 49.5,77.5C 51.2193,74.7805 53.5526,72.7805 56.5,71.5 Z"/></g>
<g><path style="opacity:0.973" fill="#41526b" d="M 471.5,237.5 C 470.167,235.5 470.167,233.5 471.5,231.5C 481.745,229.959 488.579,224.292 492,214.5C 493.118,204.056 493.618,193.556 493.5,183C 493.167,173.833 492.833,164.667 492.5,155.5C 485.653,158.051 478.653,158.718 471.5,157.5C 470.883,157.389 470.383,157.056 470,156.5C 469.5,218.166 469.333,279.832 469.5,341.5C 383.164,341.167 296.831,341.5 210.5,342.5C 210.624,343.107 210.957,343.44 211.5,343.5C 220.654,349.789 226.321,358.456 228.5,369.5C 229.751,373.169 229.751,376.836 228.5,380.5C 236.519,380.477 242.519,376.81 246.5,369.5C 248.5,369.5 250.5,369.5 252.5,369.5C 247.525,380.007 239.192,386.174 227.5,388C 216.299,412.096 197.966,420.096 172.5,412C 155.619,402.922 147.952,388.756 149.5,369.5C 152.034,358.432 158.034,349.766 167.5,343.5C 168.043,343.44 168.376,343.107 168.5,342.5C 155.517,341.501 142.517,341.168 129.5,341.5C 129.5,269.833 129.5,198.167 129.5,126.5C 233.167,126.5 336.833,126.5 440.5,126.5C 440.81,123.287 440.477,120.287 439.5,117.5C 441.241,97.2579 451.908,84.4245 471.5,79C 493.325,76.6553 508.492,85.4886 517,105.5C 522.045,125.03 516.379,140.697 500,152.5C 499.915,173.199 499.248,193.866 498,214.5C 493.271,227.073 484.437,234.74 471.5,237.5 Z M 471.5,231.5 C 471.5,206.833 471.5,182.167 471.5,157.5C 478.653,158.718 485.653,158.051 492.5,155.5C 492.833,164.667 493.167,173.833 493.5,183C 493.618,193.556 493.118,204.056 492,214.5C 488.579,224.292 481.745,229.959 471.5,231.5 Z M 228.5,369.5 C 234.5,369.5 240.5,369.5 246.5,369.5C 242.519,376.81 236.519,380.477 228.5,380.5C 229.751,376.836 229.751,373.169 228.5,369.5 Z"/></g>
<g><path style="opacity:0.756" fill="#42536c" d="M 109.5,91.5 C 130.554,91.0459 151.554,91.5459 172.5,93C 184.386,97.0476 191.386,105.214 193.5,117.5C 191.833,118.833 190.167,118.833 188.5,117.5C 185.725,107.558 179.392,101.058 169.5,98C 149.836,97.5 130.169,97.3334 110.5,97.5C 109.539,95.7354 109.205,93.7354 109.5,91.5 Z"/></g>
<g><path style="opacity:1" fill="#eda86b" d="M 471.5,92.5 C 486.513,90.4212 497.346,96.0879 504,109.5C 506.834,132.725 496.668,144.225 473.5,144C 457.852,138.208 451.352,127.042 454,110.5C 457.353,101.982 463.186,95.9815 471.5,92.5 Z"/></g>
<g><path style="opacity:1" fill="#f4cf74" d="M 472.5,96.5 C 495.59,96.4094 504.09,107.409 498,129.5C 490.746,139.359 481.246,142.192 469.5,138C 457.525,130.555 454.358,120.388 460,107.5C 463.127,102.54 467.294,98.8733 472.5,96.5 Z"/></g>
<g><path style="opacity:1" fill="#4f5d75" d="M 99.5,93.5 C 99.9166,97.8171 99.2499,101.817 97.5,105.5C 94.6913,105.412 93.358,103.912 93.5,101C 94.2992,98.851 95.1325,96.6843 96,94.5C 97.0113,93.6634 98.1779,93.33 99.5,93.5 Z"/></g>
<g><path style="opacity:0.911" fill="#cacac8" d="M 188.5,117.5 C 190.167,118.833 191.833,118.833 193.5,117.5C 275.5,117.5 357.5,117.5 439.5,117.5C 439.5,120.167 439.5,122.833 439.5,125.5C 335.5,125.5 231.5,125.5 127.5,125.5C 128.179,121.984 130.179,119.484 133.5,118C 151.83,117.5 170.164,117.333 188.5,117.5 Z"/></g>
<g><path style="opacity:1" fill="#b2b4b8" d="M 439.5,117.5 C 440.477,120.287 440.81,123.287 440.5,126.5C 336.833,126.5 233.167,126.5 129.5,126.5C 128.833,126.5 128.167,126.5 127.5,126.5C 127.5,126.167 127.5,125.833 127.5,125.5C 231.5,125.5 335.5,125.5 439.5,125.5C 439.5,122.833 439.5,120.167 439.5,117.5 Z"/></g>
<g><path style="opacity:0.902" fill="#5a677c" d="M 127.5,126.5 C 128.167,126.5 128.833,126.5 129.5,126.5C 129.5,198.167 129.5,269.833 129.5,341.5C 142.517,341.168 155.517,341.501 168.5,342.5C 168.376,343.107 168.043,343.44 167.5,343.5C 154.344,342.504 141.01,342.171 127.5,342.5C 127.5,326.833 127.5,311.167 127.5,295.5C 128.833,293.5 128.833,291.5 127.5,289.5C 127.5,235.167 127.5,180.833 127.5,126.5 Z"/></g>
<g><path style="opacity:1" fill="#eea76a" d="M 477.5,100.5 C 478.5,100.5 479.5,100.5 480.5,100.5C 480.5,101.833 480.5,103.167 480.5,104.5C 482.5,104.833 484.5,105.167 486.5,105.5C 486.5,106.5 486.5,107.5 486.5,108.5C 482.774,108.177 479.107,108.511 475.5,109.5C 474.287,111.851 474.953,113.684 477.5,115C 484.989,116.13 488.156,120.296 487,127.5C 485.266,129.451 483.099,130.451 480.5,130.5C 480.5,132.167 480.5,133.833 480.5,135.5C 479.5,135.5 478.5,135.5 477.5,135.5C 477.5,133.833 477.5,132.167 477.5,130.5C 475.473,130.662 473.473,130.495 471.5,130C 470.663,128.989 470.33,127.822 470.5,126.5C 474.131,127.412 477.797,127.579 481.5,127C 483.698,125.33 484.032,123.33 482.5,121C 478.131,119.733 474.297,117.567 471,114.5C 469.951,109.599 471.784,106.266 476.5,104.5C 477.429,103.311 477.762,101.978 477.5,100.5 Z"/></g>
<g><path style="opacity:1" fill="#e6e5e5" d="M 445.5,138.5 C 449.194,144.194 453.861,148.861 459.5,152.5C 458.501,211.664 458.168,270.998 458.5,330.5C 352.5,330.5 246.5,330.5 140.5,330.5C 140.5,266.5 140.5,202.5 140.5,138.5C 242.167,138.5 343.833,138.5 445.5,138.5 Z"/></g>
<g><path style="opacity:1" fill="#3f9fad" d="M 218.5,151.5 C 222.138,150.737 223.638,152.07 223,155.5C 219.331,157.009 217.831,155.676 218.5,151.5 Z"/></g>
<g><path style="opacity:0.902" fill="#59667b" d="M 471.5,157.5 C 471.5,182.167 471.5,206.833 471.5,231.5C 470.167,233.5 470.167,235.5 471.5,237.5C 471.5,272.167 471.5,306.833 471.5,341.5C 470.833,341.5 470.167,341.5 469.5,341.5C 469.333,279.832 469.5,218.166 470,156.5C 470.383,157.056 470.883,157.389 471.5,157.5 Z"/></g>
<g><path style="opacity:0.823" fill="#42536c" d="M 127.5,289.5 C 128.833,291.5 128.833,293.5 127.5,295.5C 127.565,295.062 127.399,294.728 127,294.5C 117.911,295.319 108.744,295.819 99.5,296C 89.7177,299.45 83.8844,306.283 82,316.5C 81.5,339.164 81.3334,361.831 81.5,384.5C 93.0317,385.085 101.365,390.419 106.5,400.5C 114.442,415.957 111.776,429.457 98.5,441C 82.5284,450.855 68.0284,449.022 55,435.5C 44.5581,418.489 46.7247,403.322 61.5,390C 65.5822,387.627 69.9155,385.794 74.5,384.5C 75.3331,362.841 75.8331,341.174 76,319.5C 77.2607,303.908 85.4274,294.074 100.5,290C 109.494,289.5 118.494,289.334 127.5,289.5 Z"/></g>
<g><path style="opacity:1" fill="#efedec" d="M 139.5,136.5 C 241.167,136.333 342.834,136.5 444.5,137C 445.056,137.383 445.389,137.883 445.5,138.5C 343.833,138.5 242.167,138.5 140.5,138.5C 140.5,202.5 140.5,266.5 140.5,330.5C 246.5,330.5 352.5,330.5 458.5,330.5C 458.168,270.998 458.501,211.664 459.5,152.5C 459.5,212.167 459.5,271.833 459.5,331.5C 352.833,331.5 246.167,331.5 139.5,331.5C 139.5,266.5 139.5,201.5 139.5,136.5 Z"/></g>
<g><path style="opacity:1" fill="#8e96a4" d="M 139.5,136.5 C 139.5,201.5 139.5,266.5 139.5,331.5C 246.167,331.5 352.833,331.5 459.5,331.5C 459.5,271.833 459.5,212.167 459.5,152.5C 460.499,212.331 460.832,272.331 460.5,332.5C 353.167,332.5 245.833,332.5 138.5,332.5C 138.168,266.998 138.501,201.665 139.5,136.5 Z"/></g>
<g><path style="opacity:1" fill="#46b8c8" d="M 295.5,274.5 C 295.833,274.5 296.167,274.5 296.5,274.5C 299.191,278.185 301.858,281.852 304.5,285.5C 294.647,294.759 282.981,300.259 269.5,302C 271.174,298.481 273.841,296.315 277.5,295.5C 277.5,294.5 277.5,293.5 277.5,292.5C 282.12,292.054 285.12,289.554 286.5,285C 291.713,283.414 294.713,279.914 295.5,274.5 Z"/></g>
<g><path style="opacity:1" fill="#41526b" d="M 404.5,279.5 C 416.155,282.829 427.821,286.162 439.5,289.5C 435.833,292.833 432.167,296.167 428.5,299.5C 431.141,301.804 433.808,304.138 436.5,306.5C 434.518,310.307 431.852,313.14 428.5,315C 426.268,312.265 423.601,310.098 420.5,308.5C 418,312.833 415.5,317.167 413,321.5C 407.153,310.47 401.319,299.47 395.5,288.5C 393.912,284.157 391.912,279.99 389.5,276C 394.628,276.364 399.628,277.531 404.5,279.5 Z"/></g>
<g><path style="opacity:1" fill="#f0da82" d="M 291.5,266.5 C 298.304,266.117 299.97,268.783 296.5,274.5C 296.167,274.5 295.833,274.5 295.5,274.5C 293.733,272.062 292.399,269.395 291.5,266.5 Z"/></g>
<g><path style="opacity:1" fill="#efd981" d="M 326.5,230.5 C 326.666,235.511 326.499,240.511 326,245.5C 325.721,248.457 324.887,251.123 323.5,253.5C 321.45,253.961 319.45,254.628 317.5,255.5C 315.799,253.422 314.466,251.089 313.5,248.5C 314.163,245.194 314.663,241.861 315,238.5C 315.615,236.884 316.615,235.551 318,234.5C 317.623,229.09 320.123,226.424 325.5,226.5C 325.232,228.099 325.566,229.432 326.5,230.5 Z"/></g>
<g><path style="opacity:1" fill="#40a0ad" d="M 148.5,226.5 C 153.486,226.305 155.152,228.472 153.5,233C 147.741,234.139 146.074,231.972 148.5,226.5 Z"/></g>
<g><path style="opacity:1" fill="#46b8c8" d="M 294.5,195.5 C 285.021,210.092 281.521,226.092 284,243.5C 285.129,250.714 286.962,257.714 289.5,264.5C 288.325,264.719 287.325,264.386 286.5,263.5C 285.872,261.742 284.872,260.242 283.5,259C 277.62,255.783 271.286,253.616 264.5,252.5C 262.06,253.238 260.06,254.571 258.5,256.5C 256.872,255.465 255.205,255.465 253.5,256.5C 251.478,254.581 251.144,252.414 252.5,250C 251.095,248.731 249.429,248.231 247.5,248.5C 247.833,246.5 248.167,244.5 248.5,242.5C 247.167,242.5 245.833,242.5 244.5,242.5C 244.5,243.5 244.5,244.5 244.5,245.5C 241.956,245.896 239.789,245.229 238,243.5C 237.306,239.998 237.806,236.664 239.5,233.5C 244.071,232.015 248.738,231.515 253.5,232C 254.11,233.947 254.943,235.781 256,237.5C 255.406,232.01 257.406,228.01 262,225.5C 262.724,220.948 265.224,218.281 269.5,217.5C 269.862,212.901 271.695,211.901 275,214.5C 275.903,213.299 277.069,212.465 278.5,212C 276.893,210.951 276.227,209.451 276.5,207.5C 275.448,207.649 274.448,207.483 273.5,207C 277.333,205.682 281.333,204.849 285.5,204.5C 285.374,201.532 283.874,199.532 281,198.5C 280.83,196.285 280.163,194.285 279,192.5C 278.163,194.007 276.996,194.507 275.5,194C 275.22,189.551 272.887,187.385 268.5,187.5C 268.672,189.492 268.005,191.158 266.5,192.5C 268.274,195.85 267.274,197.516 263.5,197.5C 263.093,204.049 262.093,204.049 260.5,197.5C 257.19,195.854 254.523,193.52 252.5,190.5C 256.32,185.521 261.32,182.354 267.5,181C 268.88,179.676 269.214,178.343 268.5,177C 266.924,177.152 265.591,177.985 264.5,179.5C 263.205,177.672 262.205,175.672 261.5,173.5C 259.519,174.105 259.185,175.105 260.5,176.5C 256.932,177.97 253.599,177.636 250.5,175.5C 249.522,175.977 248.689,176.643 248,177.5C 243.099,172.802 237.599,171.802 231.5,174.5C 229.775,173.985 228.108,173.318 226.5,172.5C 232.098,169.245 238.098,167.078 244.5,166C 252.5,165.333 260.5,165.333 268.5,166C 273.739,166.453 278.739,167.787 283.5,170C 282.376,170.249 281.376,170.749 280.5,171.5C 283.159,172.812 285.659,174.479 288,176.5C 288.233,178.78 289.066,180.78 290.5,182.5C 288.96,183.532 288.46,184.865 289,186.5C 290.329,189.829 292.163,192.829 294.5,195.5 Z"/></g>
<g><path style="opacity:1" fill="#44b8c8" d="M 253.5,256.5 C 254.609,257.29 255.942,257.79 257.5,258C 258.059,258.725 258.392,259.558 258.5,260.5C 257.402,262.775 256.068,264.942 254.5,267C 255.711,268.113 255.711,269.28 254.5,270.5C 256.667,272.83 258.334,275.497 259.5,278.5C 261.001,279.752 262.668,280.752 264.5,281.5C 265.035,288.765 265.369,295.765 265.5,302.5C 226.489,304.668 201.323,287.001 190,249.5C 185.003,224.163 191.503,202.33 209.5,184C 210.167,183.333 210.833,183.333 211.5,184C 208.241,186.022 206.741,188.855 207,192.5C 209.198,190.379 211.698,188.712 214.5,187.5C 216.258,188.128 217.758,189.128 219,190.5C 219.029,195.353 219.862,200.02 221.5,204.5C 216.884,210.05 215.384,216.383 217,223.5C 217.667,224.833 218.667,225.833 220,226.5C 220.253,229.79 221.253,232.79 223,235.5C 223.333,234.5 223.667,233.5 224,232.5C 224.333,232.833 224.667,233.167 225,233.5C 228.103,237.245 230.269,241.412 231.5,246C 234.569,247.846 237.902,248.846 241.5,249C 245.909,250.921 249.909,253.421 253.5,256.5 Z"/></g>
<g><path style="opacity:1" fill="#afc875" d="M 305.5,183.5 C 318.2,196.571 325.2,212.238 326.5,230.5C 325.566,229.432 325.232,228.099 325.5,226.5C 320.123,226.424 317.623,229.09 318,234.5C 316.615,235.551 315.615,236.884 315,238.5C 314.663,241.861 314.163,245.194 313.5,248.5C 314.466,251.089 315.799,253.422 317.5,255.5C 319.45,254.628 321.45,253.961 323.5,253.5C 322.244,258.686 320.41,263.686 318,268.5C 314.303,274.581 310.137,280.248 305.5,285.5C 305.167,285.5 304.833,285.5 304.5,285.5C 301.858,281.852 299.191,278.185 296.5,274.5C 299.97,268.783 298.304,266.117 291.5,266.5C 290.833,265.833 290.167,265.167 289.5,264.5C 286.962,257.714 285.129,250.714 284,243.5C 281.521,226.092 285.021,210.092 294.5,195.5C 298.167,191.5 301.833,187.5 305.5,183.5 Z"/></g>
<g><path style="opacity:1" fill="#3f9fad" d="M 155.5,166.5 C 160.486,166.305 162.152,168.472 160.5,173C 154.741,174.139 153.074,171.972 155.5,166.5 Z"/></g>
<g><path style="opacity:1" fill="#3e9dac" d="M 303.5,168.5 C 304.5,168.5 305.5,168.5 306.5,168.5C 306.5,169.5 306.5,170.5 306.5,171.5C 305.5,171.5 304.5,171.5 303.5,171.5C 303.5,170.5 303.5,169.5 303.5,168.5 Z"/></g>
<g><path style="opacity:1" fill="#f6d33e" d="M 404.5,279.5 C 399.628,277.531 394.628,276.364 389.5,276C 391.912,279.99 393.912,284.157 395.5,288.5C 364.647,309.484 334.647,308.484 305.5,285.5C 310.137,280.248 314.303,274.581 318,268.5C 320.41,263.686 322.244,258.686 323.5,253.5C 324.887,251.123 325.721,248.457 326,245.5C 326.499,240.511 326.666,235.511 326.5,230.5C 325.2,212.238 318.2,196.571 305.5,183.5C 330.766,162.736 358.099,159.903 387.5,175C 415.532,194.078 425.699,220.245 418,253.5C 415.318,263.2 410.818,271.867 404.5,279.5 Z"/></g>
<g><path style="opacity:1" fill="#96b878" d="M 331.5,223.5 C 331.5,235.167 331.5,246.833 331.5,258.5C 332.833,258.5 334.167,258.5 335.5,258.5C 335.18,255.102 335.513,251.768 336.5,248.5C 337.107,248.624 337.44,248.957 337.5,249.5C 336.521,252.625 336.187,255.958 336.5,259.5C 334.5,259.5 332.5,259.5 330.5,259.5C 330.172,247.322 330.505,235.322 331.5,223.5 Z"/></g>
<g><path style="opacity:1" fill="#429fac" d="M 385.5,222.5 C 387.467,222.261 389.301,222.594 391,223.5C 392.738,230.382 395.072,237.048 398,243.5C 400.76,236.724 402.593,229.724 403.5,222.5C 405.604,222.201 407.604,222.534 409.5,223.5C 406.5,233.666 403,243.666 399,253.5C 395.531,258.648 390.698,260.648 384.5,259.5C 384.33,258.178 384.663,257.011 385.5,256C 390.488,256.515 393.822,254.515 395.5,250C 391.44,241.057 388.107,231.89 385.5,222.5 Z"/></g>
<g><path style="opacity:1" fill="#49a0a9" d="M 364.5,221.5 C 368.182,221.335 371.848,221.501 375.5,222C 377.286,222.785 378.786,223.951 380,225.5C 381.435,233.389 381.935,241.389 381.5,249.5C 376.18,250.266 370.846,250.432 365.5,250C 363.714,249.215 362.214,248.049 361,246.5C 359.695,234.991 364.862,230.657 376.5,233.5C 376.683,231.064 376.016,228.897 374.5,227C 370.848,226.501 367.182,226.335 363.5,226.5C 363.366,224.708 363.699,223.042 364.5,221.5 Z"/></g>
<g><path style="opacity:1" fill="#f6d33c" d="M 367.5,237.5 C 370.5,237.5 373.5,237.5 376.5,237.5C 376.5,240.167 376.5,242.833 376.5,245.5C 373.15,245.665 369.817,245.498 366.5,245C 365.046,242.216 365.379,239.716 367.5,237.5 Z"/></g>
<g><path style="opacity:1" fill="#47a0aa" d="M 337.5,249.5 C 337.44,248.957 337.107,248.624 336.5,248.5C 335.513,251.768 335.18,255.102 335.5,258.5C 334.167,258.5 332.833,258.5 331.5,258.5C 331.5,246.833 331.5,235.167 331.5,223.5C 339.496,219.955 346.663,221.288 353,227.5C 356.403,233.973 356.069,240.307 352,246.5C 347.745,250.385 342.912,251.385 337.5,249.5 Z"/></g>
<g><path style="opacity:1" fill="#f6d33c" d="M 336.5,226.5 C 349.563,226.105 353.23,231.939 347.5,244C 344.041,245.706 340.541,245.872 337,244.5C 336.501,238.509 336.334,232.509 336.5,226.5 Z"/></g>
<g><path style="opacity:1" fill="#6a7587" d="M 469.5,341.5 C 470.167,341.5 470.833,341.5 471.5,341.5C 471.5,341.833 471.5,342.167 471.5,342.5C 384.665,342.167 297.998,342.501 211.5,343.5C 210.957,343.44 210.624,343.107 210.5,342.5C 296.831,341.5 383.164,341.167 469.5,341.5 Z"/></g>
<g><path style="opacity:0.956" fill="#c9c9c8" d="M 127.5,342.5 C 141.01,342.171 154.344,342.504 167.5,343.5C 158.034,349.766 152.034,358.432 149.5,369.5C 144.156,369.666 138.823,369.499 133.5,369C 131.714,368.215 130.214,367.049 129,365.5C 127.604,357.92 127.104,350.253 127.5,342.5 Z"/></g>
<g><path style="opacity:0.987" fill="#c9c9c8" d="M 211.5,343.5 C 297.998,342.501 384.665,342.167 471.5,342.5C 471.896,350.253 471.396,357.92 470,365.5C 468.786,367.049 467.286,368.215 465.5,369C 439.502,369.5 413.502,369.667 387.5,369.5C 385.5,369.5 383.5,369.5 381.5,369.5C 366.324,369.171 351.324,369.504 336.5,370.5C 311.833,369.167 287.167,369.167 262.5,370.5C 259.375,369.521 256.042,369.187 252.5,369.5C 250.5,369.5 248.5,369.5 246.5,369.5C 240.5,369.5 234.5,369.5 228.5,369.5C 226.321,358.456 220.654,349.789 211.5,343.5 Z"/></g>
<g><path style="opacity:1" fill="#43536c" d="M 295.5,346.5 C 307.635,346.456 310.635,351.623 304.5,362C 294.393,364.899 290.227,361.065 292,350.5C 293.376,349.295 294.542,347.962 295.5,346.5 Z"/></g>
<g><path style="opacity:1" fill="#f5d33c" d="M 217.5,365.5 C 199.167,365.5 180.833,365.5 162.5,365.5C 162.5,364.5 162.5,363.5 162.5,362.5C 162.611,361.883 162.944,361.383 163.5,361C 181.167,360.333 198.833,360.333 216.5,361C 217.38,362.356 217.714,363.856 217.5,365.5 Z"/></g>
<g><path style="opacity:1" fill="#5c6466" d="M 162.5,362.5 C 162.5,363.5 162.5,364.5 162.5,365.5C 180.833,365.5 199.167,365.5 217.5,365.5C 199.674,366.497 181.674,366.83 163.5,366.5C 163.739,368.467 163.406,370.301 162.5,372C 181.005,372.168 199.338,372.668 217.5,373.5C 199.167,373.5 180.833,373.5 162.5,373.5C 162.5,379.5 162.5,385.5 162.5,391.5C 161.167,381.833 161.167,372.167 162.5,362.5 Z"/></g>
<g><path style="opacity:0.967" fill="#45b8c8" d="M 467.5,403.5 C 468.73,401.703 469.396,399.703 469.5,397.5C 481.176,374.495 499.843,364.995 525.5,369C 551.259,378.009 563.426,396.175 562,423.5C 553.865,451.969 535.031,465.135 505.5,463C 481.001,456.835 467.668,441.168 465.5,416C 466.264,411.873 466.931,407.707 467.5,403.5 Z"/></g>
<g><path style="opacity:0.979" fill="#abaeae" d="M 336.5,370.5 C 336.071,381.245 336.571,391.912 338,402.5C 341.672,409.004 347.172,413.004 354.5,414.5C 317.833,415.833 281.167,415.833 244.5,414.5C 251.828,413.004 257.328,409.004 261,402.5C 262.429,391.912 262.929,381.245 262.5,370.5C 287.167,369.167 311.833,369.167 336.5,370.5 Z"/></g>
<g><path style="opacity:0.756" fill="#41526b" d="M 381.5,369.5 C 383.5,369.5 385.5,369.5 387.5,369.5C 386.833,382.006 392.167,390.839 403.5,396C 425.434,397.468 447.434,397.968 469.5,397.5C 469.396,399.703 468.73,401.703 467.5,403.5C 447.831,403.667 428.164,403.5 408.5,403C 390.846,398.879 381.846,387.712 381.5,369.5 Z"/></g>
<g><path style="opacity:1" fill="#f3d23f" d="M 217.5,373.5 C 217.811,380.09 217.478,386.59 216.5,393C 198.833,393.667 181.167,393.667 163.5,393C 162.944,392.617 162.611,392.117 162.5,391.5C 162.5,385.5 162.5,379.5 162.5,373.5C 180.833,373.5 199.167,373.5 217.5,373.5 Z"/></g>
<g><path style="opacity:1" fill="#f3d96c" d="M 169.5,375.5 C 183.833,375.5 198.167,375.5 212.5,375.5C 212.5,377.167 212.5,378.833 212.5,380.5C 198.167,380.5 183.833,380.5 169.5,380.5C 169.5,378.833 169.5,377.167 169.5,375.5 Z"/></g>
<g><path style="opacity:1" fill="#7c7d72" d="M 207.5,376.5 C 208.833,376.5 210.167,376.5 211.5,376.5C 211.5,377.5 211.5,378.5 211.5,379.5C 210.167,379.5 208.833,379.5 207.5,379.5C 207.5,378.5 207.5,377.5 207.5,376.5 Z"/></g>
<g><path style="opacity:1" fill="#838371" d="M 197.5,376.5 C 200.5,376.5 203.5,376.5 206.5,376.5C 206.5,377.5 206.5,378.5 206.5,379.5C 203.5,379.5 200.5,379.5 197.5,379.5C 197.5,378.5 197.5,377.5 197.5,376.5 Z"/></g>
<g><path style="opacity:1" fill="#a39b70" d="M 167.5,386.5 C 170.167,386.5 172.833,386.5 175.5,386.5C 175.5,387.833 175.5,389.167 175.5,390.5C 172.833,390.5 170.167,390.5 167.5,390.5C 167.5,389.167 167.5,387.833 167.5,386.5 Z"/></g>
<g><path style="opacity:1" fill="#b8aa6f" d="M 184.5,387.5 C 185.222,387.918 185.722,388.584 186,389.5C 187.516,386.949 188.349,387.282 188.5,390.5C 184.833,390.5 181.167,390.5 177.5,390.5C 177.5,389.167 177.5,387.833 177.5,386.5C 180.059,386.198 182.393,386.532 184.5,387.5 Z"/></g>
<g><path style="opacity:1" fill="#48556f" d="M 184.5,387.5 C 184.38,388.586 183.713,389.253 182.5,389.5C 181.833,389.167 181.167,388.833 180.5,388.5C 181.689,387.571 183.022,387.238 184.5,387.5 Z"/></g>
<g><path style="opacity:1" fill="#757971" d="M 201.5,387.5 C 201.5,388.167 201.5,388.833 201.5,389.5C 196.167,388.833 196.167,388.167 201.5,387.5 Z"/></g>
<g><path style="opacity:1" fill="#c7b870" d="M 201.5,387.5 C 196.167,388.167 196.167,388.833 201.5,389.5C 199.052,390.473 196.385,390.806 193.5,390.5C 193.5,389.167 193.5,387.833 193.5,386.5C 196.385,386.194 199.052,386.527 201.5,387.5 Z"/></g>
<g><path style="opacity:1" fill="#b2a770" d="M 205.5,386.5 C 208.167,386.5 210.833,386.5 213.5,386.5C 213.5,387.833 213.5,389.167 213.5,390.5C 210.833,390.5 208.167,390.5 205.5,390.5C 205.5,389.167 205.5,387.833 205.5,386.5 Z"/></g>
<g><path style="opacity:1" fill="#6aa09e" d="M 53.5,401.5 C 70.9921,400.503 88.6588,400.17 106.5,400.5C 106.827,410.681 106.494,420.681 105.5,430.5C 105.5,420.833 105.5,411.167 105.5,401.5C 88.1667,401.5 70.8333,401.5 53.5,401.5 Z"/></g>
<g><path style="opacity:1" fill="#e6e5e5" d="M 485.5,400.5 C 501.503,400.333 517.503,400.5 533.5,401C 534.059,401.725 534.392,402.558 534.5,403.5C 533.226,409.478 532.059,415.478 531,421.5C 530.5,423.333 529.333,424.5 527.5,425C 516.833,425.667 506.167,425.667 495.5,425C 491.778,420.395 488.945,415.228 487,409.5C 485.161,406.577 484.661,403.577 485.5,400.5 Z"/></g>
<g><path style="opacity:0.956" fill="#c8c8c7" d="M 244.5,414.5 C 281.167,415.833 317.833,415.833 354.5,414.5C 356.5,414.5 358.5,414.5 360.5,414.5C 360.5,415.833 360.5,417.167 360.5,418.5C 360.5,420.167 360.5,421.833 360.5,423.5C 360.5,424.833 360.5,426.167 360.5,427.5C 359.041,427.433 357.708,427.766 356.5,428.5C 317.167,428.5 277.833,428.5 238.5,428.5C 238.5,423.833 238.5,419.167 238.5,414.5C 240.5,414.5 242.5,414.5 244.5,414.5 Z"/></g>
<g><path style="opacity:0.866" fill="#41526b" d="M 360.5,418.5 C 369.945,424.329 369.279,429.163 358.5,433C 353.53,433.886 348.53,434.552 343.5,435C 305.5,435.333 267.5,435.667 229.5,436C 205.567,435.789 181.9,438.123 158.5,443C 153.177,444.077 148.677,446.577 145,450.5C 142.47,459.266 145.636,465.1 154.5,468C 160.88,469.758 167.38,470.591 174,470.5C 183.531,470.03 193.031,469.197 202.5,468C 233.211,462.924 263.878,457.591 294.5,452C 314.024,448.437 333.691,447.104 353.5,448C 365.862,448.45 376.695,452.616 386,460.5C 397.419,455.271 407.085,457.604 415,467.5C 420.609,479.717 425.942,492.05 431,504.5C 432.891,519.269 426.724,528.769 412.5,533C 400.637,536.162 391.471,532.662 385,522.5C 380.333,511.833 375.667,501.167 371,490.5C 367.188,478.267 370.688,468.767 381.5,462C 377.613,458.889 373.28,456.556 368.5,455C 349.943,451.147 331.276,450.813 312.5,454C 277.081,459.484 241.748,465.484 206.5,472C 191.241,474.309 175.908,474.975 160.5,474C 151.987,473.469 145.487,469.636 141,462.5C 137.674,450.994 141.84,443.494 153.5,440C 173.127,434.72 193.127,432.053 213.5,432C 253.167,431.667 292.833,431.333 332.5,431C 340.732,430.939 348.732,430.106 356.5,428.5C 357.708,427.766 359.041,427.433 360.5,427.5C 363.167,426.167 363.167,424.833 360.5,423.5C 360.5,421.833 360.5,420.167 360.5,418.5 Z"/></g>
<g><path style="opacity:1" fill="#ede7e7" d="M 542.5,393.5 C 545.247,393.187 547.914,393.52 550.5,394.5C 547.138,394.85 544.305,396.184 542,398.5C 538.802,409.764 535.802,421.097 533,432.5C 531.833,433.667 530.667,434.833 529.5,436C 523.103,437.128 516.603,437.628 510,437.5C 504.167,437.167 498.333,436.833 492.5,436.5C 503.485,435.668 514.485,435.168 525.5,435C 527.609,433.859 529.442,432.359 531,430.5C 533.333,420.5 535.667,410.5 538,400.5C 539.012,397.798 540.512,395.465 542.5,393.5 Z"/></g>
<g><path style="opacity:1" fill="#73caad" d="M 53.5,401.5 C 70.8333,401.5 88.1667,401.5 105.5,401.5C 105.5,411.167 105.5,420.833 105.5,430.5C 88.1667,430.5 70.8333,430.5 53.5,430.5C 53.5,420.833 53.5,411.167 53.5,401.5 Z"/></g>
<g><path style="opacity:1" fill="#3b936f" d="M 55.5,402.5 C 71.8333,402.5 88.1667,402.5 104.5,402.5C 104.5,411.5 104.5,420.5 104.5,429.5C 88.1667,429.5 71.8333,429.5 55.5,429.5C 55.5,420.5 55.5,411.5 55.5,402.5 Z"/></g>
<g><path style="opacity:1" fill="#7ac9b4" d="M 60.5,403.5 C 73.1711,403.333 85.8377,403.5 98.5,404C 99.6667,405.167 100.833,406.333 102,407.5C 102.667,413.167 102.667,418.833 102,424.5C 101.167,425.333 100.333,426.167 99.5,427C 86.5,427.667 73.5,427.667 60.5,427C 57.0245,424.215 55.6911,420.549 56.5,416C 56.6667,413.5 56.8333,411 57,408.5C 58.8022,407.211 59.9688,405.544 60.5,403.5 Z"/></g>
<g><path style="opacity:1" fill="#6fb989" d="M 80.5,406.5 C 81.1667,406.5 81.5,406.833 81.5,407.5C 82.5875,409 83.9208,410.333 85.5,411.5C 84.6086,412.59 83.6086,412.59 82.5,411.5C 82.1667,412.167 81.8333,412.833 81.5,413.5C 83.2276,415.229 84.5609,417.229 85.5,419.5C 84.1421,421.503 82.8087,423.503 81.5,425.5C 80.8333,426.833 80.1667,426.833 79.5,425.5C 80.0431,425.44 80.3764,425.107 80.5,424.5C 78.4904,423.935 76.8237,422.935 75.5,421.5C 76.3914,420.41 77.3914,420.41 78.5,421.5C 78.8333,420.833 79.1667,420.167 79.5,419.5C 78.5,417.5 77.5,415.5 76.5,413.5C 76.5454,410.811 77.8787,409.477 80.5,409.5C 80.5,408.5 80.5,407.5 80.5,406.5 Z"/></g>
<g><path style="opacity:1" fill="#3b9470" d="M 81.5,407.5 C 88.1586,406.667 92.1586,409.5 93.5,416C 92.0093,422.254 88.0093,425.421 81.5,425.5C 82.8087,423.503 84.1421,421.503 85.5,419.5C 84.5609,417.229 83.2276,415.229 81.5,413.5C 81.8333,412.833 82.1667,412.167 82.5,411.5C 83.6086,412.59 84.6086,412.59 85.5,411.5C 83.9208,410.333 82.5875,409 81.5,407.5 Z"/></g>
<g><path style="opacity:1" fill="#3b9470" d="M 80.5,406.5 C 80.5,407.5 80.5,408.5 80.5,409.5C 77.8787,409.477 76.5454,410.811 76.5,413.5C 77.5,415.5 78.5,417.5 79.5,419.5C 79.1667,420.167 78.8333,420.833 78.5,421.5C 77.3914,420.41 76.3914,420.41 75.5,421.5C 76.8237,422.935 78.4904,423.935 80.5,424.5C 80.3764,425.107 80.0431,425.44 79.5,425.5C 69.3722,424.407 66.3722,419.24 70.5,410C 73.4381,407.743 76.7715,406.576 80.5,406.5 Z"/></g>
<g><path style="opacity:1" fill="#e8e6e6" d="M 498.5,439.5 C 503.709,439.369 505.375,441.703 503.5,446.5C 496.37,448.277 494.703,445.944 498.5,439.5 Z"/></g>
<g><path style="opacity:1" fill="#e8e6e6" d="M 521.5,439.5 C 526.984,439.481 528.65,441.981 526.5,447C 519.745,447.756 518.078,445.256 521.5,439.5 Z"/></g>
<g><path style="opacity:1" fill="#e4e3e3" d="M 387.5,467.5 C 390.325,467.081 392.491,468.081 394,470.5C 395.393,474.286 397.059,477.952 399,481.5C 399.946,487.329 397.612,488.996 392,486.5C 390.224,481.171 388.057,476.004 385.5,471C 385.978,469.697 386.645,468.531 387.5,467.5 Z"/></g>
</svg>
